<svg xmlns="http://www.w3.org/2000/svg" viewBox="0 0 200 200" width="200" height="200">
  <!-- Placeholder QR code - replace this file with your actual QR code image -->
  <rect width="200" height="200" fill="white"/>
  <rect x="10" y="10" width="180" height="180" fill="none" stroke="black" stroke-width="2"/>

  <!-- Top-left position marker -->
  <rect x="20" y="20" width="50" height="50" fill="black"/>
  <rect x="30" y="30" width="30" height="30" fill="white"/>
  <rect x="35" y="35" width="20" height="20" fill="black"/>

  <!-- Top-right position marker -->
  <rect x="130" y="20" width="50" height="50" fill="black"/>
  <rect x="140" y="30" width="30" height="30" fill="white"/>
  <rect x="145" y="35" width="20" height="20" fill="black"/>

  <!-- Bottom-left position marker -->
  <rect x="20" y="130" width="50" height="50" fill="black"/>
  <rect x="30" y="140" width="30" height="30" fill="white"/>
  <rect x="35" y="145" width="20" height="20" fill="black"/>

  <!-- Sample data pattern -->
  <rect x="80" y="20" width="10" height="10" fill="black"/>
  <rect x="90" y="30" width="10" height="10" fill="black"/>
  <rect x="100" y="20" width="10" height="10" fill="black"/>
  <rect x="110" y="30" width="10" height="10" fill="black"/>
  <rect x="80" y="40" width="10" height="10" fill="black"/>
  <rect x="100" y="40" width="10" height="10" fill="black"/>

  <text x="100" y="105" text-anchor="middle" font-family="Arial" font-size="12" fill="#666">
    PLACEHOLDER
  </text>
  <text x="100" y="120" text-anchor="middle" font-family="Arial" font-size="10" fill="#999">
    Replace with actual QR code
  </text>
</svg>
